<svg xmlns="http://www.w3.org/2000/svg" width="600" height="600" viewBox="0 0 600 600" role="img" aria-label="Plant placeholder">
  <rect width="600" height="600" fill="#f3f6f4" />
  <g fill="none" stroke="#6bbf73" stroke-width="18" stroke-linecap="round" stroke-linejoin="round">
    <path d="M300 470V260" />
    <path d="M300 320c-70 0-120-50-120-120 70 0 120 50 120 120z" />
    <path d="M300 280c70 0 120-50 120-120-70 0-120 50-120 120z" />
    <path d="M300 380c-55 0-95-40-95-95 55 0 95 40 95 95z" />
    <path d="M300 355c55 0 95-40 95-95-55 0-95 40-95 95z" />
  </g>
  <text x="300" y="535" text-anchor="middle" font-size="28" font-family="Arial, sans-serif" fill="#4f7d57">No image</text>
</svg>
